<?xml version="1.0" encoding="UTF-8" standalone="no"?>
<!-- Created with Inkscape (http://www.inkscape.org/) -->

<svg
   width="269.77689mm"
   height="156.68909mm"
   viewBox="0 0 269.77689 156.68909"
   version="1.1"
   id="svg5"
   xml:space="preserve"
   xmlns:inkscape="http://www.inkscape.org/namespaces/inkscape"
   xmlns:sodipodi="http://sodipodi.sourceforge.net/DTD/sodipodi-0.dtd"
   xmlns="http://www.w3.org/2000/svg"
   xmlns:svg="http://www.w3.org/2000/svg"><sodipodi:namedview
     id="namedview7"
     pagecolor="#ffffff"
     bordercolor="#cccccc"
     borderopacity="1"
     inkscape:showpageshadow="0"
     inkscape:pageopacity="1"
     inkscape:pagecheckerboard="0"
     inkscape:deskcolor="#d1d1d1"
     inkscape:document-units="mm"
     showgrid="false" /><defs
     id="defs2" /><g
     id="g414"
     transform="matrix(0.03527778,0,0,-0.03527778,-9.8881568e-6,156.68908)"><path
       d="M 7647.22,0 H 0 V 4441.58 H 7647.22 V 0"
       style="fill:#ffffff;fill-opacity:1;fill-rule:nonzero;stroke:none"
       id="path416" /><path
       d="M 0.0117188,4134.05 1933.21,2213.2 0.0117188,296.48 V 0 H 194.602 L 2386.06,2191.48 135.961,4441.58 H 0.0117188 v -307.53 0"
       style="fill:#fab41d;fill-opacity:1;fill-rule:nonzero;stroke:none"
       id="path418" /><path
       d="M 0.0117188,4432.76 2231.49,2210.42 11.9883,0 H 1567.9 L 3206.58,1597.87 H 7647.22 V 2822.98 H 3206.58 L 1546.64,4441.58 H 0.0117188 v -8.82 0"
       style="fill:#00875d;fill-opacity:1;fill-rule:nonzero;stroke:none"
       id="path420" /><path
       d="m 1832.68,4441.58 1461.46,-1471.23 4353.08,-0.31 V 4441.58 H 1832.68 v 0"
       style="fill:#f1491c;fill-opacity:1;fill-rule:nonzero;stroke:none"
       id="path422" /><path
       d="M 7647.22,0 V 1462.2 H 3300.06 L 1824.02,0 h 5823.2 v 0"
       style="fill:#2151a8;fill-opacity:1;fill-rule:nonzero;stroke:none"
       id="path424" /><path
       d="M 1933.21,2213.2 0.0117188,4130.22 V 290.672 L 1933.21,2213.2 v 0"
       style="fill:#231f20;fill-opacity:1;fill-rule:nonzero;stroke:none"
       id="path426" /></g></svg>
